<?xml version="1.0" standalone="no"?>
<!DOCTYPE svg PUBLIC "-//W3C//DTD SVG 20010904//EN"
 "http://www.w3.org/TR/2001/REC-SVG-20010904/DTD/svg10.dtd">
<svg version="1.0" xmlns="http://www.w3.org/2000/svg"
 width="1920.000000pt" height="1920.000000pt" viewBox="0 0 1920.000000 1920.000000"
 preserveAspectRatio="xMidYMid meet">
<metadata>
Created by potrace 1.14, written by Peter Selinger 2001-2017
</metadata>
<g transform="translate(0.000000,1920.000000) scale(0.100000,-0.100000)"
fill="#000000" stroke="none">
<path d="M16793 17496 c-102 -24 -558 -161 -853 -258 -1007 -330 -2027 -740
-3045 -1225 l-259 -123 -201 89 c-764 340 -1532 530 -2377 591 -185 13 -727
13 -918 0 -1574 -108 -3050 -732 -4220 -1786 -124 -112 -425 -412 -511 -511
l-46 -51 -849 451 c-467 247 -889 468 -939 490 -686 300 -1486 153 -2010 -368
-285 -282 -461 -629 -542 -1065 -17 -89 -18 -301 -21 -3565 -2 -2492 0 -3498
8 -3570 72 -650 458 -1195 1045 -1476 269 -129 525 -179 921 -179 l191 0 28
-52 c311 -581 859 -1287 1327 -1710 805 -728 1719 -1251 2535 -1449 113 -28
140 -31 233 -27 117 5 213 33 303 88 123 74 858 620 1229 911 l147 116 103
-24 c936 -213 1968 -222 2923 -27 1218 250 2335 811 3260 1636 77 69 231 218
343 331 l202 207 1308 0 c1344 0 1436 2 1627 41 699 141 1273 709 1423 1409
11 52 25 139 31 192 15 135 15 6959 0 7096 -36 337 -164 655 -368 920 -290
375 -701 616 -1172 688 -169 26 -494 19 -626 -12 -20 -5 -19 1 23 115 180 500
434 1319 455 1468 20 145 -18 295 -106 419 -70 98 -157 161 -285 206 -73 26
-233 33 -317 14z m158 -526 c11 -7 19 -21 19 -37 0 -77 -325 -1085 -518 -1610
-55 -149 -105 -280 -110 -290 -8 -15 -6653 -3549 -6725 -3577 -19 -7 -158 63
-837 424 -448 237 -818 435 -822 439 -8 7 256 214 592 463 2544 1885 5424
3336 8280 4172 101 29 96 29 121 16z m-7621 -1967 l-1 -1018 -206 -140 c-114
-77 -335 -231 -492 -343 -156 -111 -287 -205 -292 -207 -18 -12 -581 62 -894
116 -93 17 -198 35 -232 41 -35 6 -63 15 -63 20 0 13 122 320 184 463 79 180
219 457 311 616 221 381 428 653 692 909 282 275 552 442 863 534 47 14 95 25
108 25 l22 1 0 -1017z m718 976 c209 -66 448 -202 656 -373 109 -90 342 -325
419 -424 l48 -61 -23 -14 c-13 -8 -115 -68 -228 -132 -297 -171 -854 -508
-1022 -619 l-28 -18 0 842 0 843 40 -7 c23 -3 85 -20 138 -37z m-2208 -245
c-457 -479 -873 -1185 -1180 -2002 l-54 -143 -30 7 c-149 32 -601 174 -866
271 -271 100 -670 272 -670 290 0 4 48 53 108 109 699 656 1464 1121 2357
1433 110 39 398 128 419 130 4 1 -33 -42 -84 -95z m3579 51 c220 -66 564 -186
584 -205 4 -4 -72 -49 -169 -100 l-177 -93 -19 24 c-78 98 -199 239 -273 317
-48 50 -81 92 -74 92 6 0 64 -16 128 -35z m-9359 -1021 c114 -20 256 -67 365
-121 49 -25 1278 -676 2730 -1446 1452 -770 2989 -1584 3415 -1810 426 -226
802 -423 835 -436 54 -23 74 -26 190 -26 106 0 140 4 185 20 31 11 1608 844
3505 1850 1898 1006 3491 1846 3541 1867 311 128 660 144 963 42 441 -147 762
-518 858 -992 17 -82 18 -278 18 -3582 0 -3312 -1 -3500 -18 -3582 -21 -102
-76 -267 -117 -348 -154 -306 -437 -549 -765 -659 -200 -67 -144 -64 -1392
-68 -814 -3 -1133 -1 -1133 7 0 6 18 35 40 65 72 98 257 383 341 526 l81 139
867 0 c961 0 933 -1 1062 66 91 48 185 142 232 231 73 140 67 -190 67 3631 l0
3443 -25 76 c-59 173 -189 305 -363 365 -92 31 -278 32 -362 1 -30 -11 -1622
-851 -3538 -1867 -1916 -1016 -3517 -1861 -3559 -1878 -109 -43 -246 -76 -373
-88 -190 -19 -412 15 -602 92 -46 19 -1649 865 -3563 1880 -1914 1015 -3505
1854 -3535 1864 -84 29 -263 27 -352 -4 -165 -57 -292 -180 -359 -347 l-24
-60 -3 -3455 c-2 -2470 1 -3470 9 -3508 6 -29 28 -89 50 -132 64 -128 178
-227 325 -283 l59 -22 1863 -3 1862 -2 0 520 c0 286 2 520 5 520 4 0 2364
-1356 2418 -1389 l28 -18 -1211 -702 c-666 -386 -1217 -704 -1225 -707 -13 -5
-15 60 -15 515 l0 520 -1877 4 c-1876 3 -1878 3 -1971 24 -193 45 -326 100
-472 198 -297 198 -494 495 -567 853 -17 82 -18 277 -18 3552 0 3342 1 3469
19 3565 53 284 172 525 355 718 106 111 208 188 337 254 263 134 530 176 814
127z m535 -1641 c402 -212 736 -392 743 -398 11 -10 6 -28 -31 -101 -144 -287
-314 -735 -421 -1111 -311 -1087 -349 -2273 -110 -3379 l35 -162 -159 -203
c-177 -227 -526 -693 -672 -896 -86 -121 -97 -133 -125 -133 -17 0 -36 5 -43
12 -9 9 -12 774 -12 3380 0 3196 1 3368 18 3377 9 6 24 8 32 5 8 -3 344 -179
745 -391z m14786 387 c19 -11 19 -59 19 -3378 0 -2606 -3 -3371 -12 -3380 -9
-9 -182 -12 -715 -12 -387 0 -703 1 -703 3 0 2 25 61 55 131 380 880 572 1880
552 2866 -20 968 -218 1850 -614 2732 l-76 170 33 67 32 67 701 372 c386 205
703 372 705 372 2 0 12 -5 23 -10z m-10198 -594 c100 -19 260 -47 355 -62 94
-15 172 -30 171 -33 0 -6 -265 -214 -279 -219 -7 -3 -457 232 -473 247 -13 12
13 101 30 101 7 0 96 -15 196 -34z m-2268 -1024 c567 -300 1032 -547 1034
-549 2 -1 -34 -38 -80 -80 -291 -269 -479 -451 -921 -894 l-498 -499 -645 0
-645 0 0 44 c0 23 5 101 10 172 64 799 264 1558 600 2271 l53 112 31 -16 c17
-8 495 -261 1061 -561z m10092 200 c-1153 -2189 -2629 -4251 -4369 -6104 -218
-232 -928 -943 -1158 -1159 -949 -890 -1923 -1693 -2978 -2452 -228 -164 -209
-158 -345 -123 -263 67 -544 176 -857 332 -497 249 -952 567 -1434 1002 -329
297 -753 818 -1035 1270 l-51 82 1064 0 1065 0 3 -312 c3 -297 4 -316 26 -377
99 -275 391 -422 667 -335 73 23 2575 1472 2644 1531 155 134 218 375 149 570
-32 90 -103 191 -171 242 -47 36 -2441 1417 -2557 1476 -197 100 -462 53 -617
-107 -46 -48 -101 -144 -123 -217 -18 -57 -20 -93 -20 -367 l0 -304 -1181 0
c-944 0 -1179 3 -1172 13 6 6 50 66 99 132 645 878 1480 1870 2280 2710 568
596 1494 1484 1533 1470 9 -3 520 -273 1136 -599 1292 -685 1250 -664 1382
-709 391 -137 811 -138 1213 -5 130 42 211 85 2720 1416 1213 643 2207 1168
2209 1166 2 -2 -53 -111 -122 -242z m616 -192 c117 -303 254 -788 311 -1100
49 -270 86 -568 102 -817 l7 -113 -852 0 c-468 0 -851 2 -851 5 0 3 62 106
138 228 357 573 732 1225 1012 1760 45 87 84 157 86 155 2 -2 23 -55 47 -118z
m-11674 -2579 c-8 -10 -106 -124 -219 -252 -113 -129 -268 -308 -345 -398 -76
-90 -140 -160 -142 -155 -17 58 -66 500 -79 712 l-7 112 403 0 c393 0 402 0
389 -19z m12087 -103 c-75 -1309 -570 -2596 -1399 -3635 -49 -62 -93 -113 -97
-113 -4 0 -78 34 -165 76 -429 206 -872 371 -1390 519 -187 54 -220 66 -219
81 1 11 24 105 53 209 131 485 265 1195 311 1660 6 61 15 119 19 130 5 11 73
108 152 215 161 220 471 661 599 852 l85 127 1029 1 1029 0 -7 -122z m-3605
-2149 c-64 -300 -192 -792 -210 -812 -4 -4 -61 4 -127 17 -65 13 -177 34 -249
46 -71 12 -136 23 -143 26 -9 3 4 25 40 65 175 202 412 481 556 657 92 111
168 199 170 194 1 -5 -15 -92 -37 -193z m-902 -1235 c239 -37 505 -86 514 -94
17 -15 -161 -447 -303 -735 -488 -991 -1123 -1637 -1770 -1800 -36 -9 -73 -18
-82 -21 -17 -5 -18 30 -18 638 l1 643 277 270 c322 314 763 763 966 983 l141
153 59 -6 c32 -3 129 -17 215 -31z m1327 -288 c276 -79 552 -172 804 -271 241
-95 500 -212 500 -225 0 -9 -218 -213 -350 -326 -685 -592 -1525 -1049 -2394
-1303 -76 -23 -141 -41 -144 -41 -3 0 37 44 89 98 448 462 881 1196 1179 2000
42 111 57 141 69 138 9 -3 120 -34 247 -70z m-3529 -2362 c-5 -6 -177 42 -247
69 -69 26 -259 120 -322 159 l-38 23 112 95 c61 52 197 171 302 263 l191 168
3 -387 c1 -213 1 -389 -1 -390z"/>
</g>
</svg>
